<svg width="900" height="520" viewBox="0 0 900 520" fill="none" xmlns="http://www.w3.org/2000/svg">
  <defs>
    <linearGradient id="bg-fin" x1="0" y1="0" x2="1" y2="1">
      <stop offset="0" stop-color="#0F172A"/>
      <stop offset="1" stop-color="#0B1224"/>
    </linearGradient>
    <linearGradient id="accent-fin" x1="0" y1="0" x2="1" y2="1">
      <stop offset="0" stop-color="#34D399"/>
      <stop offset="1" stop-color="#22D3EE"/>
    </linearGradient>
  </defs>
  <rect width="900" height="520" rx="24" fill="url(#bg-fin)"/>
  <rect x="30" y="30" width="840" height="460" rx="20" fill="#0B1224" stroke="#1F2937" stroke-dasharray="6 6"/>
  <text x="60" y="70" fill="#E5E7EB" font-size="20" font-family="Inter, sans-serif">Financial Signal Pipeline</text>
  <text x="60" y="96" fill="#9CA3AF" font-size="14" font-family="Inter, sans-serif">Market + social data unified, scored, and ensembled for trading signals.</text>

  <rect x="70" y="150" width="150" height="80" rx="12" fill="#111827" stroke="#334155"/>
  <text x="95" y="185" fill="#E5E7EB" font-size="14" font-family="Inter, sans-serif">Market Data</text>
  <text x="95" y="205" fill="#9CA3AF" font-size="12" font-family="Inter, sans-serif">OHLCV</text>

  <rect x="70" y="260" width="150" height="80" rx="12" fill="#111827" stroke="#334155"/>
  <text x="100" y="295" fill="#E5E7EB" font-size="14" font-family="Inter, sans-serif">Tweets</text>
  <text x="100" y="315" fill="#9CA3AF" font-size="12" font-family="Inter, sans-serif">FinBERT</text>

  <rect x="270" y="150" width="160" height="80" rx="12" fill="#0F172A" stroke="url(#accent-fin)" stroke-width="2"/>
  <text x="300" y="185" fill="#E0F2FE" font-size="14" font-family="Inter, sans-serif">Feature Store</text>
  <text x="300" y="205" fill="#A5B4FC" font-size="12" font-family="Inter, sans-serif">Lagged returns, RSI</text>

  <rect x="270" y="260" width="160" height="80" rx="12" fill="#0F172A" stroke="url(#accent-fin)" stroke-width="2"/>
  <text x="300" y="295" fill="#E0F2FE" font-size="14" font-family="Inter, sans-serif">Sentiment Scores</text>
  <text x="300" y="315" fill="#A5B4FC" font-size="12" font-family="Inter, sans-serif">Ticker-level</text>

  <rect x="500" y="170" width="130" height="60" rx="12" fill="#111827" stroke="#334155"/>
  <text x="530" y="205" fill="#E5E7EB" font-size="14" font-family="Inter, sans-serif">LSTM</text>

  <rect x="500" y="250" width="130" height="60" rx="12" fill="#111827" stroke="#334155"/>
  <text x="540" y="285" fill="#E5E7EB" font-size="14" font-family="Inter, sans-serif">SVM</text>

  <rect x="500" y="330" width="130" height="60" rx="12" fill="#111827" stroke="#334155"/>
  <text x="520" y="365" fill="#E5E7EB" font-size="14" font-family="Inter, sans-serif">Random Forest</text>

  <rect x="670" y="220" width="140" height="90" rx="12" fill="#0F172A" stroke="url(#accent-fin)" stroke-width="2"/>
  <text x="695" y="260" fill="#E5E7EB" font-size="14" font-family="Inter, sans-serif">Ensemble</text>
  <text x="695" y="280" fill="#9CA3AF" font-size="12" font-family="Inter, sans-serif">Blended score</text>

  <path d="M220 190H270" stroke="url(#accent-fin)" stroke-width="3" marker-end="url(#arrow-fin)"/>
  <path d="M220 300H270" stroke="url(#accent-fin)" stroke-width="3" marker-end="url(#arrow-fin)"/>
  <path d="M430 190C450 190 470 200 500 200" stroke="#34D399" stroke-width="2.5" marker-end="url(#arrow-fin)"/>
  <path d="M430 300C450 300 470 280 500 280" stroke="#34D399" stroke-width="2.5" marker-end="url(#arrow-fin)"/>
  <path d="M430 300C450 300 470 340 500 340" stroke="#34D399" stroke-width="2.5" marker-end="url(#arrow-fin)"/>
  <path d="M630 200C660 200 660 250 670 250" stroke="#22D3EE" stroke-width="2" marker-end="url(#arrow-fin)"/>
  <path d="M630 280H670" stroke="#22D3EE" stroke-width="2" marker-end="url(#arrow-fin)"/>
  <path d="M630 360C660 360 660 280 670 280" stroke="#22D3EE" stroke-width="2" marker-end="url(#arrow-fin)"/>

  <defs>
    <marker id="arrow-fin" markerWidth="10" markerHeight="10" refX="6" refY="3" orient="auto" markerUnits="strokeWidth">
      <path d="M0 0L6 3L0 6Z" fill="#34D399"/>
    </marker>
  </defs>
</svg>
