<svg width="900" height="520" viewBox="0 0 900 520" fill="none" xmlns="http://www.w3.org/2000/svg">
  <defs>
    <linearGradient id="bg-intro" x1="0" y1="0" x2="1" y2="1">
      <stop offset="0" stop-color="#0F172A"/>
      <stop offset="1" stop-color="#0B1224"/>
    </linearGradient>
    <linearGradient id="accent-intro" x1="0" y1="0" x2="1" y2="1">
      <stop offset="0" stop-color="#A78BFA"/>
      <stop offset="1" stop-color="#6366F1"/>
    </linearGradient>
  </defs>
  <rect width="900" height="520" rx="24" fill="url(#bg-intro)"/>
  <rect x="30" y="30" width="840" height="460" rx="20" fill="#0B1224" stroke="#1F2937" stroke-dasharray="6 6"/>
  <text x="60" y="70" fill="#E5E7EB" font-size="20" font-family="Inter, sans-serif">Experience Timeline</text>
  <text x="60" y="96" fill="#9CA3AF" font-size="14" font-family="Inter, sans-serif">AI orchestration, domain products, and production reliability milestones.</text>

  <line x1="120" y1="280" x2="780" y2="280" stroke="#334155" stroke-width="3" stroke-linecap="round"/>
  <circle cx="180" cy="280" r="14" fill="#111827" stroke="url(#accent-intro)" stroke-width="3"/>
  <circle cx="320" cy="280" r="14" fill="#111827" stroke="#22D3EE" stroke-width="3"/>
  <circle cx="460" cy="280" r="14" fill="#111827" stroke="#34D399" stroke-width="3"/>
  <circle cx="600" cy="280" r="14" fill="#111827" stroke="#F59E0B" stroke-width="3"/>
  <circle cx="740" cy="280" r="14" fill="#111827" stroke="#A78BFA" stroke-width="3"/>

  <rect x="120" y="180" width="150" height="80" rx="12" fill="#111827" stroke="#334155"/>
  <text x="140" y="215" fill="#E5E7EB" font-size="14" font-family="Inter, sans-serif">Systems &amp; APIs</text>
  <text x="140" y="235" fill="#9CA3AF" font-size="12" font-family="Inter, sans-serif">Python, JS, SQL</text>

  <rect x="260" y="120" width="150" height="80" rx="12" fill="#111827" stroke="#334155"/>
  <text x="282" y="155" fill="#E5E7EB" font-size="14" font-family="Inter, sans-serif">Cloud DevOps</text>
  <text x="282" y="175" fill="#9CA3AF" font-size="12" font-family="Inter, sans-serif">AWS/GCP, Docker</text>

  <rect x="400" y="190" width="160" height="80" rx="12" fill="#0F172A" stroke="url(#accent-intro)" stroke-width="2"/>
  <text x="420" y="225" fill="#E0E7FF" font-size="14" font-family="Inter, sans-serif">AI Orchestration</text>
  <text x="420" y="245" fill="#A5B4FC" font-size="12" font-family="Inter, sans-serif">Routing + SSE</text>

  <rect x="540" y="120" width="150" height="80" rx="12" fill="#111827" stroke="#334155"/>
  <text x="560" y="155" fill="#E5E7EB" font-size="14" font-family="Inter, sans-serif">RAG Systems</text>
  <text x="560" y="175" fill="#9CA3AF" font-size="12" font-family="Inter, sans-serif">Vector search</text>

  <rect x="680" y="190" width="150" height="80" rx="12" fill="#111827" stroke="#334155"/>
  <text x="700" y="225" fill="#E5E7EB" font-size="14" font-family="Inter, sans-serif">Vertical AI Apps</text>
  <text x="700" y="245" fill="#9CA3AF" font-size="12" font-family="Inter, sans-serif">HRMS, IoT</text>

  <text x="160" y="320" fill="#9CA3AF" font-size="12" font-family="Inter, sans-serif">2016</text>
  <text x="300" y="320" fill="#9CA3AF" font-size="12" font-family="Inter, sans-serif">2018</text>
  <text x="440" y="320" fill="#9CA3AF" font-size="12" font-family="Inter, sans-serif">2020</text>
  <text x="580" y="320" fill="#9CA3AF" font-size="12" font-family="Inter, sans-serif">2022</text>
  <text x="720" y="320" fill="#9CA3AF" font-size="12" font-family="Inter, sans-serif">Now</text>
</svg>
