<svg width="900" height="520" viewBox="0 0 900 520" fill="none" xmlns="http://www.w3.org/2000/svg">
  <defs>
    <linearGradient id="bg" x1="0" y1="0" x2="1" y2="1">
      <stop offset="0" stop-color="#0F172A"/>
      <stop offset="1" stop-color="#111827"/>
    </linearGradient>
    <linearGradient id="accent" x1="0" y1="0" x2="1" y2="1">
      <stop offset="0" stop-color="#A78BFA"/>
      <stop offset="1" stop-color="#6366F1"/>
    </linearGradient>
  </defs>
  <rect width="900" height="520" rx="24" fill="url(#bg)"/>
  <rect x="30" y="30" width="840" height="460" rx="20" fill="#0B1224" stroke="#1F2937" stroke-dasharray="6 6"/>
  <text x="60" y="70" fill="#E5E7EB" font-size="20" font-family="Inter, sans-serif">Model Routing &amp; Fallbacks</text>
  <text x="60" y="96" fill="#9CA3AF" font-size="14" font-family="Inter, sans-serif">Traffic is classified, routed to DeepSeek / OpenAI, with caching + SSE streaming.</text>

  <rect x="80" y="150" width="160" height="90" rx="12" fill="#111827" stroke="#334155"/>
  <text x="110" y="200" fill="#E5E7EB" font-size="14" font-family="Inter, sans-serif">User Prompt</text>

  <rect x="290" y="130" width="160" height="70" rx="12" fill="#111827" stroke="#334155"/>
  <text x="320" y="170" fill="#E5E7EB" font-size="14" font-family="Inter, sans-serif">Intent Classifier</text>

  <rect x="290" y="220" width="160" height="70" rx="12" fill="#111827" stroke="#334155"/>
  <text x="320" y="260" fill="#E5E7EB" font-size="14" font-family="Inter, sans-serif">Cost/Latency Score</text>

  <rect x="520" y="120" width="140" height="70" rx="12" fill="#0F172A" stroke="url(#accent)" stroke-width="2"/>
  <text x="540" y="160" fill="#E0E7FF" font-size="14" font-family="Inter, sans-serif">DeepSeek</text>

  <rect x="520" y="210" width="140" height="70" rx="12" fill="#0F172A" stroke="url(#accent)" stroke-width="2"/>
  <text x="550" y="250" fill="#E0E7FF" font-size="14" font-family="Inter, sans-serif">OpenAI</text>

  <rect x="520" y="300" width="140" height="70" rx="12" fill="#111827" stroke="#334155"/>
  <text x="548" y="340" fill="#E5E7EB" font-size="14" font-family="Inter, sans-serif">Local Model</text>

  <rect x="720" y="200" width="100" height="70" rx="12" fill="#111827" stroke="#334155"/>
  <text x="740" y="240" fill="#E5E7EB" font-size="14" font-family="Inter, sans-serif">Cache</text>

  <rect x="720" y="300" width="100" height="70" rx="12" fill="#111827" stroke="#334155"/>
  <text x="740" y="340" fill="#E5E7EB" font-size="14" font-family="Inter, sans-serif">SSE</text>

  <path d="M240 195H290" stroke="url(#accent)" stroke-width="3" marker-end="url(#arrow)"/>
  <path d="M450 165H520" stroke="url(#accent)" stroke-width="2.5" marker-end="url(#arrow)"/>
  <path d="M450 255H520" stroke="url(#accent)" stroke-width="2.5" marker-end="url(#arrow)"/>
  <path d="M450 255C480 255 480 335 520 335" stroke="#22D3EE" stroke-width="2.5" marker-end="url(#arrow)"/>
  <path d="M660 155H720" stroke="#22D3EE" stroke-width="2" marker-end="url(#arrow)"/>
  <path d="M660 245H720" stroke="#22D3EE" stroke-width="2" marker-end="url(#arrow)"/>
  <path d="M660 335H720" stroke="#A78BFA" stroke-width="2" stroke-dasharray="6 6" marker-end="url(#arrow)"/>
  <path d="M770 270V300" stroke="#A78BFA" stroke-width="2" marker-end="url(#arrow)"/>

  <circle cx="450" cy="195" r="5" fill="#A78BFA"/>
  <circle cx="450" cy="245" r="5" fill="#A78BFA"/>
  <circle cx="450" cy="335" r="5" fill="#22D3EE"/>

  <defs>
    <marker id="arrow" markerWidth="10" markerHeight="10" refX="6" refY="3" orient="auto" markerUnits="strokeWidth">
      <path d="M0 0L6 3L0 6Z" fill="#A78BFA"/>
    </marker>
  </defs>
</svg>
