<svg width="900" height="520" viewBox="0 0 900 520" fill="none" xmlns="http://www.w3.org/2000/svg">
  <defs>
    <linearGradient id="bg-rag" x1="0" y1="0" x2="1" y2="1">
      <stop offset="0" stop-color="#0F172A"/>
      <stop offset="1" stop-color="#0B1224"/>
    </linearGradient>
    <linearGradient id="accent-rag" x1="0" y1="0" x2="1" y2="1">
      <stop offset="0" stop-color="#22D3EE"/>
      <stop offset="1" stop-color="#6366F1"/>
    </linearGradient>
  </defs>
  <rect width="900" height="520" rx="24" fill="url(#bg-rag)"/>
  <rect x="30" y="30" width="840" height="460" rx="20" fill="#0B1224" stroke="#1F2937" stroke-dasharray="6 6"/>
  <text x="60" y="70" fill="#E5E7EB" font-size="20" font-family="Inter, sans-serif">RAG Pipeline</text>
  <text x="60" y="96" fill="#9CA3AF" font-size="14" font-family="Inter, sans-serif">Documents ingested, embedded, retrieved, and composed into grounded answers.</text>

  <rect x="80" y="170" width="150" height="90" rx="12" fill="#111827" stroke="#334155"/>
  <text x="100" y="210" fill="#E5E7EB" font-size="14" font-family="Inter, sans-serif">Docs &amp; PDFs</text>
  <text x="100" y="230" fill="#9CA3AF" font-size="12" font-family="Inter, sans-serif">Versioned</text>

  <rect x="270" y="170" width="150" height="90" rx="12" fill="#0F172A" stroke="url(#accent-rag)" stroke-width="2"/>
  <text x="295" y="210" fill="#E0F2FE" font-size="14" font-family="Inter, sans-serif">Embeddings</text>
  <text x="295" y="230" fill="#A5B4FC" font-size="12" font-family="Inter, sans-serif">Chunk + metadata</text>

  <rect x="460" y="170" width="150" height="90" rx="12" fill="#111827" stroke="#334155"/>
  <text x="485" y="210" fill="#E5E7EB" font-size="14" font-family="Inter, sans-serif">Vector Index</text>
  <text x="485" y="230" fill="#9CA3AF" font-size="12" font-family="Inter, sans-serif">Pinecone/Chroma</text>

  <rect x="650" y="170" width="150" height="90" rx="12" fill="#0F172A" stroke="url(#accent-rag)" stroke-width="2"/>
  <text x="675" y="205" fill="#E0F2FE" font-size="14" font-family="Inter, sans-serif">Retriever</text>
  <text x="675" y="225" fill="#A5B4FC" font-size="12" font-family="Inter, sans-serif">Top-k, filters</text>

  <rect x="360" y="310" width="200" height="90" rx="12" fill="#0F172A" stroke="url(#accent-rag)" stroke-width="2"/>
  <text x="390" y="345" fill="#E0F2FE" font-size="14" font-family="Inter, sans-serif">Prompt Composer</text>
  <text x="390" y="365" fill="#A5B4FC" font-size="12" font-family="Inter, sans-serif">Context + query</text>

  <rect x="600" y="310" width="140" height="90" rx="12" fill="#111827" stroke="#334155"/>
  <text x="630" y="345" fill="#E5E7EB" font-size="14" font-family="Inter, sans-serif">LLM Output</text>
  <text x="630" y="365" fill="#9CA3AF" font-size="12" font-family="Inter, sans-serif">Citations + SSE</text>

  <path d="M230 215H270" stroke="url(#accent-rag)" stroke-width="3" marker-end="url(#arrow-rag)"/>
  <path d="M420 215H460" stroke="url(#accent-rag)" stroke-width="3" marker-end="url(#arrow-rag)"/>
  <path d="M610 215H650" stroke="url(#accent-rag)" stroke-width="3" marker-end="url(#arrow-rag)"/>
  <path d="M725 260C725 290 610 320 560 320" stroke="#22D3EE" stroke-width="2.5" marker-end="url(#arrow-rag)"/>
  <path d="M460 260C460 290 450 310 450 310" stroke="#22D3EE" stroke-width="2.5" marker-end="url(#arrow-rag)"/>
  <path d="M560 355H600" stroke="#22D3EE" stroke-width="2.5" marker-end="url(#arrow-rag)"/>

  <defs>
    <marker id="arrow-rag" markerWidth="10" markerHeight="10" refX="6" refY="3" orient="auto" markerUnits="strokeWidth">
      <path d="M0 0L6 3L0 6Z" fill="#22D3EE"/>
    </marker>
  </defs>
</svg>
